<?xml version="1.0" encoding="UTF-8" standalone="no"?>
<!DOCTYPE svg PUBLIC "-//W3C//DTD SVG 1.1//EN" "http://www.w3.org/Graphics/SVG/1.1/DTD/svg11.dtd">
<svg width="100%" height="100%" viewBox="0 0 825 825" version="1.1" xmlns="http://www.w3.org/2000/svg" xmlns:xlink="http://www.w3.org/1999/xlink" xml:space="preserve" xmlns:serif="http://www.serif.com/" style="fill-rule:evenodd;clip-rule:evenodd;stroke-linejoin:round;stroke-miterlimit:2;">
    <rect id="Artboard1" x="0" y="0" width="825" height="825" style="fill:none;"/>
    <g id="Artboard11" serif:id="Artboard1">
        <g transform="matrix(1.79088,0,0,2.43468,0,0)">
            <path d="M460.668,65.25C460.668,29.238 420.919,0 371.961,0L88.706,0C39.748,0 0,29.238 0,65.25L0,273.604C0,309.616 39.748,338.854 88.706,338.854L371.961,338.854C420.919,338.854 460.668,309.616 460.668,273.604L460.668,65.25Z" style="fill:rgb(0,123,255);"/>
        </g>
        <g id="path1727" transform="matrix(8.03132,0,0,8.03132,-2901.78,-1784.56)">
            <path d="M390.716,313.338C390.519,313.021 390.246,309.592 390.109,305.719C389.878,299.203 389.705,298.523 387.797,296.604C386.662,295.464 385.734,293.872 385.734,293.066C385.734,292.259 385.228,291.18 384.609,290.666C383.361,289.63 383.09,286.498 384.189,285.819C384.605,285.562 384.433,284.279 383.768,282.687C383.148,281.204 382.82,279.524 383.039,278.954C383.258,278.383 383.09,277.916 382.667,277.916C382.243,277.916 382.137,277.526 382.431,277.05C382.758,276.522 382.637,276.388 382.122,276.706C380.991,277.405 377.284,275.424 372.047,271.322C367.442,267.716 367.263,267.401 368.6,265.26C369.193,264.31 369.515,264.069 370.428,264.423C370.511,264.456 371.124,263.25 371.218,263.292C371.284,263.322 370.828,264.597 370.9,264.632C371.056,264.707 371.226,264.793 371.412,264.891C372.483,265.45 375.452,265.909 378.01,265.911L382.661,265.916L379.291,260.216C375.803,254.316 372.985,247.743 372.985,245.505C372.985,244.798 371.8,244.241 371.299,243.317C370.775,242.351 367.652,244.356 370.548,242.103C371.032,241.727 371.311,241.111 371.029,239.986C370.713,238.73 370.936,238.042 371.76,237.725C372.579,237.411 376.065,240.189 383.046,246.718C388.602,251.915 392.418,255.986 392.628,256.178C392.8,256.335 393.453,256.952 395.095,257.882C396.737,258.812 398.319,260.415 398.921,261.258C400.43,263.372 401.045,263.964 400.219,262.231C399.526,260.777 395.794,257.509 394.677,256.916C393.549,256.317 393.968,254.801 395.844,252.571C398.191,249.782 401.592,248.342 404.254,249.01L406.302,249.524L407.508,250.06C406.081,250.476 404.793,251.126 403.582,251.908C400.814,254.333 399.277,258.223 399.251,258.554C399.209,259.095 399.895,258.159 400.662,256.469C403.237,250.8 409.81,248.516 414.317,251.725C417.417,253.932 418.92,257.229 418.609,261.135C418.328,264.677 418.46,264.779 422.972,264.475C424.271,264.387 425.556,264.676 425.828,265.116C426.1,265.556 427.456,265.916 428.841,265.916C430.227,265.916 432.911,266.581 434.807,267.394C437.464,268.533 438.703,268.701 440.211,268.128C441.574,267.609 442.477,267.642 443.191,268.234C443.754,268.701 444.772,268.87 445.453,268.609C446.515,268.201 446.637,267.195 446.312,261.499C445.992,255.879 445.525,254.016 443.259,249.327C441.788,246.282 438.706,241.522 436.41,238.749C434.113,235.975 432.234,233.546 432.234,233.35C432.234,232.176 441.474,238.496 445.128,242.169C450.381,247.448 455.858,257.897 457.083,264.979C458.088,270.786 457.061,277.469 454.366,282.673C453.331,284.67 452.484,287.262 452.484,288.432C452.484,290.338 451.269,292.337 449.685,293.037C448.845,293.408 445.734,297.978 445.734,298.841C445.734,299.889 444.3,300.641 441.378,301.123C438.974,301.52 438.741,301.846 436.783,307.541C435.206,312.128 434.364,313.594 433.207,313.767C431.978,313.95 431.605,313.457 431.222,311.142C430.963,309.574 430.747,306.668 430.743,304.684C430.734,300.946 429.758,300.479 428.92,303.814C427.529,309.359 425.314,313.916 424.011,313.916C422.168,313.916 421.734,312.476 421.734,306.355C421.734,302.378 421.486,301.166 420.672,301.166C420.087,301.166 419.455,300.744 419.266,300.229C418.991,299.479 418.723,299.479 417.928,300.229C416.7,301.387 414.14,301.433 411.74,300.339C409.644,299.384 406.734,300.509 406.734,302.274C406.734,302.855 405.852,305.712 404.772,308.623C403.303,312.587 402.459,313.916 401.412,313.916C399.71,313.916 399.3,312.355 399.049,304.916L398.86,299.291L396.3,306.603C394.357,312.151 393.418,313.916 392.406,313.916C391.673,313.916 390.912,313.656 390.716,313.338L390.716,313.338ZM393.748,265.785C395.891,263.773 395.965,261.464 393.955,259.308C391.958,257.164 389.853,257.23 387.575,259.507C385.329,261.753 385.275,262.88 387.289,265.44C389.179,267.842 391.431,267.963 393.749,265.785L393.748,265.785ZM388.361,264.79C387.654,264.083 387.076,263.071 387.076,262.541C387.076,261.365 389.337,259.008 390.466,259.008C392.021,259.008 394.143,261.011 394.143,262.478C394.143,264.153 392.314,266.074 390.719,266.074C390.129,266.074 389.068,265.496 388.361,264.79Z" style="fill:white;fill-rule:nonzero;"/>
        </g>
    </g>
</svg>
